<svg width="1259" height="150" xmlns="http://www.w3.org/2000/svg"><g fill="none" fill-rule="evenodd"><g fill-rule="nonzero"><path d="M606.492 47.4h12.528V123h-12.528V47.4Zm42.552 76.68c-6.552 0-12.636-1.404-18.252-4.212l1.188-10.692c5.544 3.6 11.088 5.4 16.632 5.4 2.952 0 5.202-.486 6.75-1.458s2.322-2.43 2.322-4.374c0-2.16-.792-3.78-2.376-4.86-1.584-1.08-4.176-2.268-7.776-3.564-5.256-1.8-9.234-3.852-11.934-6.156-2.7-2.304-4.05-5.652-4.05-10.044 0-4.608 1.746-8.388 5.238-11.34 3.492-2.952 8.406-4.428 14.742-4.428 5.904 0 11.196 1.296 15.876 3.888l-1.188 10.476c-2.376-1.728-4.716-3.06-7.02-3.996-2.304-.936-4.788-1.404-7.452-1.404-2.664 0-4.716.522-6.156 1.566-1.44 1.044-2.16 2.538-2.16 4.482 0 1.44.396 2.628 1.188 3.564.792.936 1.926 1.728 3.402 2.376 1.476.648 3.798 1.548 6.966 2.7 4.824 1.8 8.514 3.87 11.07 6.21 2.556 2.34 3.834 5.634 3.834 9.882 0 4.824-1.728 8.694-5.184 11.61-3.456 2.916-8.676 4.374-15.66 4.374Zm43.848 0c-4.608 0-8.046-1.278-10.314-3.834-2.268-2.556-3.402-5.814-3.402-9.774V42h11.988v62.856c0 3.024.18 5.166.54 6.426.36 1.26 1.008 2.07 1.944 2.43.936.36 2.52.54 4.752.54l-1.188 9.828h-4.32Zm25.488 0c-4.608 0-8.406-1.458-11.394-4.374-2.988-2.916-4.482-6.75-4.482-11.502 0-4.68 1.656-8.424 4.968-11.232 3.312-2.808 7.29-4.806 11.934-5.994 4.644-1.188 9.27-1.854 13.878-1.998-.072-3.744-.9-6.354-2.484-7.83s-4.212-2.214-7.884-2.214c-2.304 0-4.59.342-6.858 1.026-2.268.684-4.806 1.782-7.614 3.294l-1.296-9.828c6.048-3.312 12.42-4.968 19.116-4.968 6.48 0 11.304 1.782 14.472 5.346 3.168 3.564 4.752 9.45 4.752 17.658v13.284c0 2.808.126 4.842.378 6.102.252 1.26.72 2.142 1.404 2.646.684.504 1.818.756 3.402.756h1.512l-1.404 9.828h-3.348c-3.456 0-6.138-.576-8.046-1.728-1.908-1.152-3.438-2.844-4.59-5.076-1.872 2.088-4.248 3.744-7.128 4.968-2.88 1.224-5.976 1.836-9.288 1.836Zm4.32-9.396c1.8 0 3.69-.45 5.67-1.35 1.98-.9 3.654-2.142 5.022-3.726v-12.42c-5.544.216-9.99 1.188-13.338 2.916-3.348 1.728-5.022 4.248-5.022 7.56 0 4.68 2.556 7.02 7.668 7.02Zm63.612-46.224c6.984 0 12.204 2.196 15.66 6.588 3.456 4.392 5.184 10.44 5.184 18.144V123h-11.988V93.948c0-5.328-.918-9.216-2.754-11.664-1.836-2.448-4.878-3.672-9.126-3.672-5.04 0-8.928 1.764-11.664 5.292V123h-12.096V69.432h10.692l.432 4.428c4.608-3.6 9.828-5.4 15.66-5.4ZM867.852 42v81h-11.124l-.54-4.536c-4.104 3.744-9.18 5.616-15.228 5.616-4.968 0-9.324-1.242-13.068-3.726-3.744-2.484-6.624-5.832-8.64-10.044-2.016-4.212-3.024-8.874-3.024-13.986 0-5.04.99-9.684 2.97-13.932 1.98-4.248 4.824-7.632 8.532-10.152 3.708-2.52 8.118-3.78 13.23-3.78 5.832 0 10.764 1.728 14.796 5.184V42h12.096Zm-25.056 71.928c4.248 0 7.614-1.548 10.098-4.644 2.484-3.096 3.726-7.416 3.726-12.96 0-5.472-1.26-9.792-3.78-12.96-2.52-3.168-5.868-4.752-10.044-4.752-4.392 0-7.848 1.638-10.368 4.914-2.52 3.276-3.78 7.542-3.78 12.798 0 5.184 1.26 9.414 3.78 12.69 2.52 3.276 5.976 4.914 10.368 4.914Z" fill="#78EF93"/><path d="M937.296 124.512c-10.368 0-18.18-2.988-23.436-8.964-5.256-5.976-7.884-14.256-7.884-24.84V47.4h12.528v40.068c0 8.064 1.314 14.274 3.942 18.63s7.578 6.534 14.85 6.534c7.272 0 12.222-2.178 14.85-6.534s3.942-10.566 3.942-18.63V47.4h12.528v43.308c0 10.584-2.628 18.864-7.884 24.84-5.256 5.976-13.068 8.964-23.436 8.964Zm73.008-56.052c4.968 0 9.252 1.224 12.852 3.672 3.6 2.448 6.336 5.778 8.208 9.99 1.872 4.212 2.808 8.91 2.808 14.094 0 5.184-.918 9.9-2.754 14.148-1.836 4.248-4.554 7.596-8.154 10.044-3.6 2.448-7.92 3.672-12.96 3.672-3.456 0-6.426-.432-8.91-1.296-2.484-.864-4.734-2.232-6.75-4.104v30.456h-12.096V69.432h9.612l1.296 5.724c2.304-2.16 4.806-3.816 7.506-4.968 2.7-1.152 5.814-1.728 9.342-1.728Zm-2.052 45.468c4.248 0 7.56-1.584 9.936-4.752 2.376-3.168 3.564-7.488 3.564-12.96 0-5.4-1.188-9.684-3.564-12.852-2.376-3.168-5.688-4.752-9.936-4.752-4.536 0-8.046 1.548-10.53 4.644s-3.726 7.416-3.726 12.96c0 5.616 1.242 9.972 3.726 13.068s5.994 4.644 10.53 4.644Zm50.76 10.152c-6.552 0-12.636-1.404-18.252-4.212l1.188-10.692c5.544 3.6 11.088 5.4 16.632 5.4 2.952 0 5.202-.486 6.75-1.458s2.322-2.43 2.322-4.374c0-2.16-.792-3.78-2.376-4.86-1.584-1.08-4.176-2.268-7.776-3.564-5.256-1.8-9.234-3.852-11.934-6.156-2.7-2.304-4.05-5.652-4.05-10.044 0-4.608 1.746-8.388 5.238-11.34 3.492-2.952 8.406-4.428 14.742-4.428 5.904 0 11.196 1.296 15.876 3.888l-1.188 10.476c-2.376-1.728-4.716-3.06-7.02-3.996-2.304-.936-4.788-1.404-7.452-1.404-2.664 0-4.716.522-6.156 1.566-1.44 1.044-2.16 2.538-2.16 4.482 0 1.44.396 2.628 1.188 3.564.792.936 1.926 1.728 3.402 2.376 1.476.648 3.798 1.548 6.966 2.7 4.824 1.8 8.514 3.87 11.07 6.21 2.556 2.34 3.834 5.634 3.834 9.882 0 4.824-1.728 8.694-5.184 11.61-3.456 2.916-8.676 4.374-15.66 4.374Zm55.944 0c-6.192 0-11.466-1.26-15.822-3.78-4.356-2.52-7.65-5.922-9.882-10.206-2.232-4.284-3.348-9.054-3.348-14.31 0-5.04 1.026-9.63 3.078-13.77 2.052-4.14 5.076-7.434 9.072-9.882 3.996-2.448 8.694-3.672 14.094-3.672 4.752 0 8.874.99 12.366 2.97 3.492 1.98 6.156 4.698 7.992 8.154 1.836 3.456 2.754 7.416 2.754 11.88 0 2.304-.252 4.5-.756 6.588h-36.072c.648 5.544 2.574 9.576 5.778 12.096 3.204 2.52 7.182 3.78 11.934 3.78 5.832 0 11.124-1.332 15.876-3.996l.864 10.044c-5.472 2.736-11.448 4.104-17.928 4.104Zm7.992-34.236c0-3.168-.9-5.832-2.7-7.992-1.8-2.16-4.536-3.24-8.208-3.24-6.984 0-11.376 3.744-13.176 11.232h24.084Zm35.424 34.236c-4.608 0-8.046-1.278-10.314-3.834-2.268-2.556-3.402-5.814-3.402-9.774V42h11.988v62.856c0 3.024.18 5.166.54 6.426.36 1.26 1.008 2.07 1.944 2.43.936.36 2.52.54 4.752.54l-1.188 9.828h-4.32Zm27.324 0c-4.608 0-8.046-1.278-10.314-3.834-2.268-2.556-3.402-5.814-3.402-9.774V42h11.988v62.856c0 3.024.18 5.166.54 6.426.36 1.26 1.008 2.07 1.944 2.43.936.36 2.52.54 4.752.54l-1.188 9.828h-4.32Z" fill="#505C65"/></g><g transform="translate(6)"><rect stroke="#FEC823" stroke-width="6.104" fill="#FFF" x="3.052" y="13.117" width="125.896" height="127.831" rx="12.971"/><path d="M9.92 10.065h112.16c5.48 0 9.92 4.44 9.92 9.919v10.21H0v-10.21c0-5.479 4.44-9.92 9.92-9.92Z" fill="#FEC823"/><rect fill="#FFF" x="31.283" width="9.919" height="20.129" rx="4.96"/><rect fill="#FEC823" x="31.283" width="9.919" height="10.065" rx="4.96"/><rect fill="#FFF" x="91.561" width="9.919" height="20.129" rx="4.96"/><rect fill="#FEC823" x="91.561" width="9.919" height="10.065" rx="4.96"/><g fill-rule="nonzero"><path d="m43.6 108.272-2.239-31.82c-.03-.425-.046-.852-.046-1.276 0-9.893 7.902-17.91 17.65-17.91h14.968c9.75 0 17.652 8.017 17.652 17.908 0 .426-.016.85-.046 1.275l-2.24 31.823" fill-opacity=".22" fill="#FEC823"/><path d="m52.74 59.584-.767-1.168a23.21 23.21 0 0 1-3.803-12.743l-5.14 3.912a10.199 10.199 0 0 0-4 8.117c0 2.69 1.054 5.27 2.93 7.173l1.64 1.665M80.16 59.584l.768-1.168a23.21 23.21 0 0 0 3.802-12.743l5.141 3.912a10.199 10.199 0 0 1 3.999 8.117c0 2.69-1.053 5.27-2.93 7.173L89.3 66.54M41.315 68.858h-1.592c-3.288 0-6.357 1.667-8.18 4.442a10.066 10.066 0 0 0-1.653 5.535v6.253h2.784c2.607 0 5.109-1.05 6.953-2.922l1.688-1.715M91.585 68.858h1.593c3.288 0 6.356 1.667 8.18 4.442a10.066 10.066 0 0 1 1.652 5.535v6.253h-2.783a9.762 9.762 0 0 1-6.953-2.922l-1.69-1.715M59.595 96.68c2.457 0 4.776.413 6.855 1.131a21.01 21.01 0 0 1 6.855-1.131c8.834 0 15.995 5.191 15.995 11.592 0 6.402-7.161 11.593-15.995 11.593a21.01 21.01 0 0 1-6.855-1.132 21.01 21.01 0 0 1-6.855 1.132c-8.834 0-15.995-5.191-15.995-11.593 0-6.401 7.161-11.592 15.995-11.592Z" fill="#FEC823"/><path d="M73.936 57.266H72.64a18.622 18.622 0 0 0-6.19 13.91c0 10.244 8.185 18.549 18.28 18.549a18 18 0 0 0 5.948-1.025l.861-12.249c.03-.424.046-.85.046-1.275 0-9.893-7.902-17.91-17.65-17.91Z" fill="#FEC823"/><path d="M73.305 122.183a23.31 23.31 0 0 1-6.855-1.015 23.31 23.31 0 0 1-6.855 1.015c-10.079 0-18.28-6.239-18.28-13.91 0-7.672 8.201-13.912 18.28-13.912 2.356 0 4.657.341 6.855 1.016a23.31 23.31 0 0 1 6.855-1.016c10.08 0 18.28 6.24 18.28 13.911 0 7.672-8.2 13.911-18.28 13.911Zm-6.855-5.766c.247 0 .496.042.734.123a18.78 18.78 0 0 0 6.121 1.006c7.43 0 13.71-4.247 13.71-9.274 0-5.026-6.28-9.274-13.71-9.274-2.12 0-4.18.339-6.121 1.009a2.278 2.278 0 0 1-1.47 0 18.696 18.696 0 0 0-6.119-1.009c-7.43 0-13.71 4.248-13.71 9.274 0 5.027 6.28 9.274 13.71 9.274 2.12 0 4.18-.338 6.122-1.008.237-.081.486-.12.733-.12Z" fill="#414952"/><path d="M79.018 110.59c-1.89 0-3.428-1.56-3.428-3.477 0-1.917 1.538-3.478 3.428-3.478s3.427 1.56 3.427 3.478c0 1.918-1.538 3.478-3.427 3.478ZM53.883 110.59c-1.89 0-3.428-1.56-3.428-3.477 0-1.917 1.538-3.478 3.428-3.478s3.427 1.56 3.427 3.478c0 1.918-1.538 3.478-3.427 3.478Z" fill="#414952"/><path d="m91.578 108.437-4.556-.332 2.24-31.823c.024-.362.038-.735.038-1.106 0-8.597-6.894-15.592-15.367-15.592H58.965c-8.47 0-15.365 6.995-15.365 15.592 0 .371.014.744.041 1.113l2.237 31.819-4.556.331-2.239-31.823c-.034-.482-.053-.96-.053-1.44 0-11.154 8.944-20.229 19.937-20.229h14.969c10.99 0 19.934 9.075 19.934 20.229 0 .48-.018.958-.048 1.435l-2.244 31.826Z" fill="#414952"/><path d="M81.303 82.77c-1.89 0-3.428-1.561-3.428-3.479 0-1.917 1.538-3.477 3.428-3.477s3.427 1.56 3.427 3.477c0 1.918-1.538 3.478-3.427 3.478ZM51.598 82.77c-1.89 0-3.428-1.561-3.428-3.479 0-1.917 1.538-3.477 3.428-3.477s3.427 1.56 3.427 3.477c0 1.918-1.538 3.478-3.427 3.478ZM41.985 68.179l-1.643-1.667c-2.32-2.351-3.597-5.483-3.597-8.81 0-3.902 1.838-7.628 4.913-9.97L46.8 43.82a2.265 2.265 0 0 1 2.393-.22 2.325 2.325 0 0 1 1.263 2.074c0 4.09 1.184 8.052 3.419 11.456l.767 1.168-3.802 2.572-.768-1.169a25.453 25.453 0 0 1-3.815-9.673L44.4 51.44c-1.93 1.47-3.085 3.812-3.085 6.263 0 2.06.823 4.078 2.258 5.534l1.643 1.667-3.231 3.276ZM90.915 68.179l-3.23-3.278 1.642-1.667a7.938 7.938 0 0 0 2.258-5.532c0-2.451-1.154-4.79-3.085-6.26l-1.855-1.41a25.453 25.453 0 0 1-3.816 9.673l-.768 1.168-3.802-2.57.768-1.17a20.844 20.844 0 0 0 3.418-11.46c0-.878.489-1.68 1.264-2.075a2.265 2.265 0 0 1 2.392.22l5.141 3.914c3.078 2.342 4.913 6.068 4.913 9.97 0 3.329-1.277 6.459-3.597 8.812l-1.643 1.665Z" fill="#414952"/><path d="M32.674 87.406H29.89c-1.263 0-2.284-1.036-2.284-2.318v-6.253c0-2.437.703-4.795 2.035-6.82 2.251-3.428 6.02-5.475 10.082-5.475h1.592v4.637h-1.592a7.5 7.5 0 0 0-6.28 3.41 7.687 7.687 0 0 0-1.268 4.248v3.934h.499a7.45 7.45 0 0 0 5.335-2.242l1.69-1.716 3.232 3.279-1.691 1.715c-2.287 2.321-5.33 3.601-8.566 3.601ZM103.01 87.406h-2.783c-3.236 0-6.28-1.28-8.567-3.6l-1.69-1.716 3.23-3.279 1.691 1.716a7.45 7.45 0 0 0 5.336 2.242h.498v-3.934a7.692 7.692 0 0 0-1.268-4.248 7.497 7.497 0 0 0-6.28-3.41h-1.592V66.54h1.593c4.06 0 7.83 2.047 10.08 5.474a12.373 12.373 0 0 1 2.037 6.82v6.254c0 1.282-1.022 2.318-2.285 2.318ZM84.73 92.043c-11.34 0-20.565-9.36-20.565-20.866 0-5.984 2.536-11.688 6.963-15.65l3.025 3.478c-3.444 3.08-5.418 7.518-5.418 12.172 0 8.947 7.177 16.229 15.995 16.229 2.077 0 4.095-.396 5.996-1.18l1.718 4.298a20.204 20.204 0 0 1-7.714 1.519Z" fill="#414952"/></g></g><g><rect fill="#78EF93" width="144" height="144" rx="14.4"/><path d="M59.938 118.784h2.87c-.293-6.777-.43-11.576-.41-14.395.055-8.108.637-14.12.995-18.002 1.86-20.17 5.484-30.28 6.855-30.28.143 0-2.253-.575-2.67-6.685-.023-.356-7.136-.534-13.325.627-7.36 1.381-14.147 4.569-14.233 4.055-.373-2.233 4.424-8.716 11.218-11.806 3.807-1.73 13.822-2.727 18.015.413.57.428-4.864-4.155-10.43-8.23-5.455-3.993-12.48-7.15-10.617-7.97 1.863-.822 5.706-2.274 11.35-1.49 4.708.654 11.11 6.485 11.11 5.31 0-1.176-4.031-7.272-3.087-8.139.944-.866 5.998 1.294 9.7 4.499 3.653 3.163 5.168 8.025 5.28 7.79.262-.547 5.19-2.375 10.174-1.846 5.9.626 11.925 3.729 11.095 4.384-.336.266-6.955 1.978-11.873 4.42-2.52 1.25-9.104 5.01-10.51 4.998-1.405-.01 10.823.59 15.045 5.482 5.444 6.309 6.526 17.492 4.31 16.678-1.287-.472-6.517-6.86-11.275-10.815-2.29-1.903-4.762-3.385-7.415-4.445-.775 1.53-1.43 2.533-1.966 3.008-.816.723-2.857 1.315-2.865 1.437-.405 6.217-2.044 26.551-4.917 61.002h3.576a2 2 0 1 1 0 4h-16a2 2 0 0 1 0-4Z" fill="#FFF"/></g><path d="M199.078 54.14h13.36l19.78 58.22 19.641-58.22h13.22V123h-8.86V82.36c0-1.407.031-3.735.094-6.985.062-3.25.093-6.734.093-10.453L236.766 123h-9.235L207.75 64.922v2.11c0 1.687.04 4.257.117 7.71.078 3.453.117 5.992.117 7.617V123h-8.906V54.14Zm85.547 55.5c0 2.438.89 4.36 2.672 5.766 1.781 1.407 3.89 2.11 6.328 2.11 2.969 0 5.844-.688 8.625-2.063 4.688-2.281 7.031-6.015 7.031-11.203v-6.797c-1.031.656-2.36 1.203-3.984 1.64-1.625.438-3.219.75-4.781.938l-5.11.656c-3.062.407-5.36 1.047-6.89 1.922-2.594 1.47-3.891 3.813-3.891 7.032Zm20.438-17.062c1.937-.25 3.234-1.062 3.89-2.437.375-.75.563-1.828.563-3.235 0-2.875-1.024-4.96-3.07-6.258-2.048-1.296-4.977-1.945-8.79-1.945-4.406 0-7.531 1.188-9.375 3.563-1.031 1.312-1.703 3.265-2.015 5.859h-7.875c.156-6.188 2.164-10.492 6.023-12.914 3.86-2.422 8.336-3.633 13.43-3.633 5.906 0 10.703 1.125 14.39 3.375 3.657 2.25 5.485 5.75 5.485 10.5v28.922c0 .875.18 1.578.539 2.11.36.53 1.117.796 2.273.796.375 0 .797-.023 1.266-.07.469-.047.969-.117 1.5-.211v6.234c-1.313.375-2.313.61-3 .704-.688.093-1.625.14-2.813.14-2.906 0-5.015-1.031-6.328-3.094-.687-1.093-1.172-2.64-1.453-4.64-1.719 2.25-4.187 4.203-7.406 5.86-3.219 1.655-6.766 2.484-10.64 2.484-4.657 0-8.462-1.415-11.415-4.243-2.953-2.828-4.43-6.367-4.43-10.617 0-4.656 1.454-8.265 4.36-10.828 2.906-2.563 6.719-4.14 11.437-4.734l13.454-1.688Zm31.828 5.906c0 5.375 1.14 9.875 3.421 13.5 2.282 3.625 5.938 5.438 10.97 5.438 3.906 0 7.116-1.68 9.632-5.04 2.516-3.359 3.774-8.179 3.774-14.46 0-6.344-1.297-11.04-3.891-14.086-2.594-3.047-5.797-4.57-9.61-4.57-4.25 0-7.695 1.625-10.335 4.875-2.641 3.25-3.961 8.03-3.961 14.343Zm12.703-26.578c3.844 0 7.062.813 9.656 2.438 1.5.937 3.203 2.578 5.11 4.922v-25.36h8.109V123h-7.594v-6.984c-1.969 3.093-4.297 5.328-6.984 6.703-2.688 1.375-5.766 2.062-9.235 2.062-5.594 0-10.437-2.351-14.531-7.054-4.094-4.704-6.14-10.961-6.14-18.774 0-7.312 1.867-13.648 5.6-19.008 3.735-5.36 9.071-8.039 16.009-8.039Zm56.25-.234c3.562 0 7.015.836 10.36 2.508 3.343 1.672 5.89 3.836 7.64 6.492 1.687 2.531 2.812 5.484 3.375 8.86.5 2.312.75 6 .75 11.062h-36.797c.156 5.094 1.36 9.18 3.61 12.258 2.25 3.078 5.734 4.617 10.452 4.617 4.407 0 7.922-1.453 10.547-4.36a14.696 14.696 0 0 0 3.188-5.859h8.297c-.22 1.844-.946 3.898-2.18 6.164-1.234 2.266-2.617 4.117-4.149 5.555-2.562 2.5-5.734 4.187-9.515 5.062-2.031.5-4.328.75-6.89.75-6.25 0-11.548-2.273-15.891-6.82-4.344-4.547-6.516-10.914-6.516-19.102 0-8.062 2.187-14.609 6.563-19.64 4.375-5.032 10.093-7.547 17.156-7.547Zm13.453 22.219c-.344-3.657-1.14-6.578-2.39-8.766-2.313-4.063-6.173-6.094-11.579-6.094-3.875 0-7.125 1.399-9.75 4.196-2.625 2.796-4.015 6.351-4.172 10.664h27.89Zm45.047-39.985h8.203v24.985c1.844-2.407 4.047-4.243 6.61-5.508 2.562-1.266 5.343-1.899 8.343-1.899 6.25 0 11.32 2.149 15.21 6.446 3.892 4.297 5.837 10.632 5.837 19.007 0 7.938-1.922 14.532-5.766 19.782-3.844 5.25-9.172 7.875-15.984 7.875-3.813 0-7.031-.922-9.656-2.766-1.563-1.094-3.235-2.844-5.016-5.25V123h-7.781V53.906Zm21.937 63.235c4.563 0 7.977-1.813 10.242-5.438 2.266-3.625 3.399-8.406 3.399-14.344 0-5.28-1.133-9.656-3.399-13.125-2.265-3.468-5.601-5.203-10.007-5.203-3.844 0-7.211 1.422-10.102 4.266-2.89 2.844-4.336 7.531-4.336 14.062 0 4.72.594 8.547 1.781 11.485 2.22 5.531 6.36 8.297 12.422 8.297Zm63.469-44.344h9.328c-1.187 3.219-3.828 10.562-7.922 22.031-3.062 8.625-5.625 15.656-7.687 21.094-4.875 12.812-8.313 20.625-10.313 23.437-2 2.813-5.437 4.22-10.312 4.22-1.188 0-2.102-.048-2.742-.142-.641-.093-1.43-.265-2.368-.515v-7.688c1.47.407 2.532.657 3.188.75.656.094 1.234.141 1.734.141 1.563 0 2.711-.258 3.446-.773a7.135 7.135 0 0 0 1.851-1.899c.156-.25.719-1.531 1.688-3.844a238.38 238.38 0 0 0 2.109-5.156l-18.563-51.656h9.563l13.453 40.875 13.547-40.875Z" fill="#637381" fill-rule="nonzero"/><path stroke="#78EF93" stroke-width="4.62" d="M1247.6 55.796V72H1214V39.333h16.327"/><path fill="#78EF93" d="M1238 30h19.2v6.067H1238z"/><path fill="#78EF93" d="M1252.4 30h6.24v18.667h-6.24z"/><path fill="#78EF93" d="m1223.151 60.032 26.675-26.855 4.489 4.214-26.675 26.856z"/></g></svg>