<?xml version="1.0" encoding="UTF-8"?>
<svg width="49px" height="46px" viewBox="0 0 49 46" version="1.1" xmlns="http://www.w3.org/2000/svg" xmlns:xlink="http://www.w3.org/1999/xlink">
    <!-- Generator: Sketch 63.1 (92452) - https://sketch.com -->
    <title>Shape</title>
    <desc>Created with Sketch.</desc>
    <g id="Page-1" stroke="none" stroke-width="1" fill="none" fill-rule="evenodd">
        <g id="Island-upsell---dashboard-" transform="translate(-950.000000, -2506.000000)" fill="#000000" fill-rule="nonzero">
            <g id="upsell-list" transform="translate(765.000000, 2429.000000)">
                <g id="desktop" transform="translate(185.000000, 77.000000)">
                    <path d="M45.4111328,0 L3.58886719,0 C1.60991797,0 0,1.62907789 0,3.63157895 L0,35.5894737 C0,37.5919747 1.60991797,39.2210526 3.58886719,39.2210526 L18.9068223,39.2210526 L18.0429102,42.2806821 C17.6959863,43.5094147 16.3360449,44.5473684 15.0732422,44.5473684 L9.66601562,44.5473684 C9.26961328,44.5473684 8.94824219,44.8724674 8.94824219,45.2736842 C8.94824219,45.6749011 9.26961328,46 9.66601562,46 L39.3339844,46 C39.7303867,46 40.0517578,45.6749011 40.0517578,45.2736842 C40.0517578,44.8724674 39.7303867,44.5473684 39.3339844,44.5473684 L33.9267578,44.5473684 C32.6639551,44.5473684 31.3040137,43.5093179 30.9570898,42.2806821 L30.0931777,39.2210526 L45.4111328,39.2210526 C47.390082,39.2210526 49,37.5919747 49,35.5894737 L49,3.63157895 C49,1.62907789 47.390082,0 45.4111328,0 Z M3.58886719,1.45263158 L45.4111328,1.45263158 C46.5985215,1.45263158 47.5644531,2.43015579 47.5644531,3.63157895 L47.5644531,29.0526316 L1.43554688,29.0526316 L1.43554688,3.63157895 C1.43554688,2.43015579 2.40147852,1.45263158 3.58886719,1.45263158 Z M29.5767637,42.6797684 C29.7737207,43.3775158 30.1652422,44.0185137 30.678498,44.5473684 L18.321502,44.5473684 C18.8347578,44.0185137 19.2262793,43.3774189 19.4232363,42.6797684 L20.399791,39.2210526 L28.6001133,39.2210526 L29.5767637,42.6797684 Z M45.4111328,37.7684211 L3.58886719,37.7684211 C2.40147852,37.7684211 1.43554688,36.7908968 1.43554688,35.5894737 L1.43554688,30.5052632 L47.5644531,30.5052632 L47.5644531,35.5894737 C47.5644531,36.7908968 46.5985215,37.7684211 45.4111328,37.7684211 Z" id="Shape"></path>
                </g>
            </g>
        </g>
    </g>
</svg>