<?xml version="1.0" encoding="UTF-8"?>
<svg width="34px" height="61px" viewBox="0 0 34 61" version="1.1" xmlns="http://www.w3.org/2000/svg" xmlns:xlink="http://www.w3.org/1999/xlink">
    <!-- Generator: Sketch 63.1 (92452) - https://sketch.com -->
    <title>Shape</title>
    <desc>Created with Sketch.</desc>
    <g id="Page-1" stroke="none" stroke-width="1" fill="none" fill-rule="evenodd">
        <g id="Island-upsell---dashboard-" transform="translate(-1241.000000, -2498.000000)" fill="#010002" fill-rule="nonzero">
            <g id="upsell-list" transform="translate(765.000000, 2429.000000)">
                <g id="smartphone-iphone" transform="translate(476.000000, 69.000000)">
                    <path d="M27.224,0 L6.785,0 C3.201,0 0.285,2.893 0.285,6.449 L0.285,53.562 C0.285,57.116 3.201,60.01 6.785,60.01 L27.223,60.01 C30.807,60.01 33.7240003,57.116 33.7240003,53.562 L33.7240003,6.449 C33.725,2.893 30.808,0 27.224,0 Z M31.576,53.562 C31.576,55.932 29.624,57.861 27.224,57.861 L6.785,57.861 C4.386,57.861 2.434,55.932 2.434,53.562 L2.434,6.449 L2.435,6.449 C2.435,4.078 4.387,2.15 6.786,2.15 L27.224,2.15 C29.623,2.15 31.576,4.078 31.576,6.449 C31.57675,6.449 31.57675,53.562 31.576,53.562 Z M29.366,6.315 L4.646,6.315 C4.349,6.315 4.109,6.555 4.109,6.852 L4.109,48.605 C4.109,48.901 4.349,49.143 4.646,49.143 L29.366,49.143 C29.663,49.143 29.904,48.902 29.904,48.605 L29.904,6.852 C29.903,6.555 29.663,6.315 29.366,6.315 Z M28.829,48.067 L5.182,48.067 L5.182,7.389 L28.828,7.389 C28.828,7.389 28.828,48.067 28.829,48.067 Z M17.006,50.038 C15.195,50.038 13.721,51.511 13.721,53.322 C13.721,55.133 15.195,56.606 17.006,56.606 C18.817,56.606 20.289,55.132 20.289,53.322 C20.289,51.511 18.817,50.038 17.006,50.038 Z M17.006,55.531 C15.787,55.531 14.796,54.54 14.796,53.322 C14.796,52.104 15.787,51.112 17.006,51.112 C18.224,51.112 19.215,52.104 19.215,53.322 C19.215,54.54 18.224,55.531 17.006,55.531 Z M13.451,4.204 C13.451,3.985 13.665,3.808 13.929,3.808 L20.08,3.808 C20.344,3.808 20.557,3.985 20.557,4.204 C20.557,4.423 20.345,4.6 20.081,4.6 L13.93,4.6 C13.667,4.6 13.452,4.423 13.451,4.204 Z" id="Shape"></path>
                </g>
            </g>
        </g>
    </g>
</svg>